<?xml version="1.0" standalone="no"?>
<!DOCTYPE svg PUBLIC "-//W3C//DTD SVG 20010904//EN"
 "http://www.w3.org/TR/2001/REC-SVG-20010904/DTD/svg10.dtd">
<svg version="1.0" xmlns="http://www.w3.org/2000/svg"
 width="989.000000pt" height="1280.000000pt" viewBox="0 0 989.000000 1280.000000"
 preserveAspectRatio="xMidYMid meet">
<g transform="translate(0.000000,1280.000000) scale(0.100000,-0.100000)"
fill="#ffffff" stroke="none">
<path d="M5337 12463 c-21 -21 -3 -55 61 -113 l67 -62 -50 28 c-27 15 -54 31
-59 36 -16 13 -46 9 -53 -8 -10 -26 14 -63 59 -92 140 -90 248 -184 275 -237
9 -16 31 -47 49 -68 28 -31 34 -45 34 -83 l0 -46 -52 7 c-29 4 -74 16 -100 26
-73 28 -141 35 -161 14 -50 -49 8 -108 133 -134 30 -6 107 -36 170 -66 97 -45
132 -56 225 -71 61 -9 117 -20 126 -24 37 -20 132 -246 271 -645 49 -143 115
-327 145 -410 63 -168 83 -236 83 -280 0 -19 -43 -116 -113 -255 -62 -124
-131 -270 -152 -325 -40 -102 -141 -266 -196 -317 -32 -31 -64 -36 -73 -13 -3
10 -19 15 -44 15 -69 0 -151 79 -203 195 -19 41 -24 73 -27 176 l-4 127 37 63
c21 35 36 65 35 67 -1 1 1 15 5 30 6 31 57 65 74 51 8 -6 8 -5 1 3 -12 15 -13
85 -1 92 11 7 22 55 31 146 11 102 12 106 43 130 19 15 27 31 27 51 0 36 17
72 31 64 5 -4 9 4 9 17 0 13 7 34 16 46 8 12 13 30 11 40 -4 13 -5 12 -6 -5 0
-12 -5 -24 -10 -27 -12 -8 -4 169 9 194 13 24 13 33 -1 24 -7 -4 -9 0 -5 13 4
13 -1 30 -15 46 -25 33 -11 36 16 5 11 -13 18 -31 16 -42 -1 -11 2 -16 8 -12
12 8 4 -21 -11 -41 -5 -6 -5 -14 0 -17 4 -3 14 11 21 30 10 28 10 39 -3 64
-15 32 -4 42 13 13 6 -10 11 -13 11 -7 0 6 -7 17 -15 24 -8 7 -17 28 -21 49
-3 20 -13 47 -22 61 -33 53 -83 93 -68 54 3 -8 2 -12 -4 -9 -6 3 -10 10 -10
16 0 5 -9 18 -20 29 -33 33 -23 67 10 38 8 -7 0 3 -17 24 -17 20 -32 41 -35
48 -2 6 -24 14 -48 17 -25 3 -50 10 -57 15 -7 5 -22 11 -35 13 -68 8 -183 63
-183 86 0 8 -26 27 -57 43 -53 26 -62 27 -102 17 -36 -9 -50 -8 -73 4 -35 18
-73 19 -73 2 0 -9 -10 -12 -30 -9 -16 2 -30 8 -30 13 0 5 -5 9 -12 9 -9 0 -9
-3 0 -12 18 -18 15 -49 -3 -42 -10 4 -15 0 -15 -11 0 -12 -5 -15 -20 -10 -12
4 -27 1 -35 -5 -8 -7 -30 -13 -49 -15 -20 -2 -44 -6 -56 -10 -21 -7 -29 10 -7
18 9 4 9 6 0 6 -15 1 -53 -38 -53 -54 0 -6 -12 -18 -27 -27 -16 -10 -45 -34
-66 -55 -87 -86 -131 -123 -149 -123 -31 0 -59 -31 -58 -64 3 -56 0 -67 -27
-94 -16 -15 -24 -24 -19 -20 23 18 24 5 5 -44 -11 -29 -24 -55 -28 -58 -9 -6
-31 -45 -31 -56 0 -3 7 0 17 7 15 13 15 12 4 -9 -7 -13 -17 -20 -24 -16 -7 4
-9 4 -5 -1 4 -4 3 -14 -3 -22 -9 -10 -7 -19 7 -39 50 -70 53 -78 42 -92 -9
-10 -8 -12 2 -10 8 2 15 -1 15 -7 1 -5 4 -17 8 -25 3 -8 8 -35 11 -60 l6 -45
-20 25 c-11 14 -20 20 -20 13 0 -14 27 -43 41 -43 5 0 9 -9 9 -20 0 -11 12
-26 29 -34 16 -9 32 -27 35 -42 8 -32 41 -76 49 -67 4 3 14 0 23 -8 10 -8 20
-13 23 -11 3 2 7 -2 10 -9 2 -8 -1 -9 -10 -3 -11 6 -12 5 -3 -7 7 -8 26 -48
43 -90 38 -91 87 -145 124 -135 22 5 27 1 41 -35 9 -22 14 -44 11 -49 -3 -5 4
-14 15 -20 25 -13 26 -27 3 -33 -10 -2 -8 -3 4 -2 32 3 47 -19 82 -125 38
-116 41 -193 10 -257 -28 -58 -82 -102 -116 -95 -16 3 -42 -4 -69 -19 -41 -22
-45 -22 -76 -7 -18 8 -62 41 -97 73 -74 66 -131 104 -249 165 -54 28 -154 100
-290 209 -114 92 -243 194 -287 227 -104 80 -134 110 -155 159 -16 37 -17 92
-15 670 l2 630 39 8 c54 12 103 34 139 63 125 102 193 138 352 184 74 21 101
45 89 76 -5 12 -16 14 -50 9 l-45 -7 12 25 c8 18 32 33 79 52 37 15 79 35 93
46 24 20 34 62 16 73 -4 3 -50 -8 -102 -24 -90 -28 -133 -33 -73 -9 88 36 202
93 222 111 23 23 29 52 11 63 -5 4 -48 -5 -95 -20 -47 -15 -87 -25 -90 -22 -3
2 18 21 45 41 52 37 73 78 52 99 -9 9 -18 8 -39 -4 -15 -9 -72 -42 -127 -73
-54 -32 -122 -77 -150 -101 -27 -23 -70 -53 -95 -65 -25 -13 -72 -42 -105 -65
-33 -24 -103 -66 -155 -95 -179 -98 -239 -162 -268 -280 -6 -25 -18 -115 -27
-200 -9 -85 -34 -238 -56 -340 -62 -282 -87 -438 -100 -630 -14 -210 -8 -305
25 -374 32 -70 59 -104 248 -316 189 -211 350 -371 523 -517 66 -55 146 -128
179 -161 51 -52 59 -66 61 -104 2 -23 5 -49 7 -57 3 -13 -71 -72 -103 -83 -8
-3 12 -40 50 -95 l62 -90 -7 -64 c-7 -71 7 -137 50 -253 20 -50 30 -108 42
-220 8 -83 18 -167 22 -186 4 -19 5 -59 1 -89 -4 -30 -5 -59 -2 -64 5 -8 24
-192 24 -237 1 -47 -15 -171 -23 -176 -11 -7 -100 22 -168 56 -38 19 -85 59
-150 127 -52 54 -109 110 -126 124 -26 23 -33 37 -44 105 -7 43 -17 84 -23 89
-6 7 -7 -2 -4 -25 3 -19 9 -56 13 -82 l6 -47 -41 20 c-89 42 -185 44 -337 4
-73 -19 -73 -19 -67 5 7 25 4 25 -90 1 -70 -18 -157 -62 -157 -79 0 -4 24 -19
53 -35 l53 -27 -3 -63 c-2 -34 -8 -92 -13 -129 -8 -53 -7 -77 6 -120 26 -85
37 -105 81 -142 18 -15 41 -41 52 -59 18 -30 19 -38 9 -93 l-12 -60 -135 -11
c-119 -10 -138 -9 -148 4 -9 12 -24 14 -58 11 -45 -6 -63 5 -24 15 17 5 20 12
17 43 -3 34 -7 39 -38 47 -86 22 -290 -15 -290 -53 0 -14 -11 -18 -68 -22 -71
-5 -132 -29 -132 -52 0 -20 19 -25 55 -14 16 4 42 8 57 8 16 0 28 4 28 8 0 9
96 0 105 -10 3 -3 -12 -8 -34 -11 -22 -3 -64 -17 -93 -31 -38 -19 -93 -31
-197 -46 -245 -34 -410 -76 -541 -136 -106 -48 -121 -59 -188 -131 -41 -43
-77 -87 -81 -98 -5 -11 -13 -69 -20 -130 l-12 -110 56 -108 c51 -98 62 -112
123 -157 96 -71 240 -143 410 -204 168 -61 271 -107 357 -160 33 -20 126 -70
206 -111 121 -61 161 -88 229 -150 45 -41 88 -75 95 -75 7 0 72 -45 143 -100
88 -67 136 -111 147 -134 40 -85 159 -190 227 -201 58 -9 158 -86 323 -246 72
-69 164 -148 205 -175 41 -27 111 -85 157 -129 45 -44 127 -116 180 -160 54
-44 115 -97 135 -117 20 -21 50 -46 66 -55 16 -10 69 -60 118 -112 107 -113
178 -171 209 -171 40 0 41 -69 1 -228 -89 -358 -97 -509 -45 -848 5 -33 9 -90
9 -127 0 -36 5 -78 11 -94 6 -15 19 -86 30 -158 10 -71 30 -170 44 -218 27
-96 30 -117 15 -117 -6 0 -10 -41 -10 -104 l0 -104 -29 -10 c-41 -14 -106 -76
-126 -119 -26 -54 -14 -134 36 -252 50 -117 62 -155 89 -296 19 -99 20 -122
11 -225 -6 -63 -13 -142 -15 -175 -2 -39 -14 -86 -34 -134 -48 -110 -42 -181
21 -239 66 -62 216 -21 264 71 9 18 47 124 85 237 65 195 69 209 68 295 -1
157 19 343 51 475 28 115 30 134 25 235 -8 133 7 275 29 288 12 6 15 28 15
105 -2 187 9 468 20 522 33 174 79 702 80 921 0 46 9 91 30 155 46 133 86 293
110 439 12 72 34 189 50 260 15 72 31 151 35 178 6 41 10 47 31 47 18 0 25 7
30 28 3 15 10 37 15 50 5 13 9 52 9 88 0 36 6 75 12 87 8 14 13 73 14 167 1
104 7 175 22 250 51 253 82 518 82 707 l0 142 59 -34 c33 -19 115 -74 183
-121 67 -47 152 -102 188 -121 36 -20 85 -49 109 -66 59 -41 148 -76 192 -77
46 0 130 43 169 86 37 43 73 113 90 179 10 37 26 62 60 95 98 96 150 273 117
402 -9 35 -18 93 -20 130 -3 44 -10 73 -21 83 -9 9 -16 23 -16 31 0 8 -28 47
-63 87 -81 93 -140 173 -156 215 -12 29 -15 31 -30 18 -9 -8 -42 -19 -73 -24
l-57 -9 -79 121 c-43 67 -98 157 -122 201 -57 107 -98 165 -115 165 -7 0 -27
8 -45 18 l-31 17 -27 -31 c-15 -17 -34 -40 -43 -51 -24 -30 -198 -82 -358
-108 -210 -33 -194 -40 -192 91 1 60 9 141 18 179 22 103 81 312 103 370 11
28 27 74 36 104 8 29 38 101 65 159 27 58 56 127 64 155 10 34 40 80 95 149
79 96 81 100 66 123 -9 13 -25 26 -36 30 -11 3 -20 10 -20 15 0 14 25 64 69
140 66 110 191 377 246 520 26 69 64 166 85 215 63 148 125 346 191 605 57
220 63 255 63 345 0 114 -15 168 -110 379 -67 149 -132 264 -295 528 -72 115
-165 271 -207 346 -67 121 -88 148 -173 232 -221 217 -357 343 -410 378 -30
20 -86 62 -125 92 -38 31 -96 71 -129 89 -33 18 -90 53 -126 77 -67 44 -80 50
-92 37z m114 -1088 c-18 -8 -38 -12 -43 -9 -16 10 13 24 47 23 l30 0 -34 -14z
m79 -15 c13 -9 13 -10 0 -10 -8 0 -22 5 -30 10 -13 9 -13 10 0 10 8 0 22 -5
30 -10z m-610 -145 c-7 -9 -15 -13 -17 -11 -7 7 7 26 19 26 6 0 6 -6 -2 -15z
m980 -20 c7 -9 8 -15 2 -15 -5 0 -12 7 -16 15 -3 8 -4 15 -2 15 2 0 9 -7 16
-15z m-980 -14 c0 -9 -41 -23 -49 -16 -3 4 28 20 47 24 1 1 2 -3 2 -8z m-217
-141 c-3 -11 -9 -20 -15 -20 -5 0 -4 9 2 20 6 11 12 20 14 20 2 0 2 -9 -1 -20z
m1307 -10 c0 24 38 -20 46 -54 5 -22 4 -28 -7 -24 -16 5 -59 65 -59 82 0 6 5
4 10 -4 8 -13 10 -13 10 0z m35 -100 c3 -5 1 -10 -4 -10 -6 0 -11 5 -11 10 0
6 2 10 4 10 3 0 8 -4 11 -10z m-1440 -229 c-4 -20 -11 -29 -18 -24 -7 4 -6 -1
2 -10 8 -11 9 -17 3 -17 -6 0 -16 9 -21 19 -8 14 -6 25 10 45 26 33 33 28 24
-13z m1248 -631 c-7 -28 -13 -25 -13 6 0 14 4 23 9 20 5 -3 7 -15 4 -26z
m-1413 -1160 c0 -5 -4 -10 -10 -10 -5 0 -10 5 -10 10 0 6 5 10 10 10 6 0 10
-4 10 -10z m20 -73 c0 -20 -1 -20 -16 -5 -9 9 -13 21 -9 27 10 16 25 3 25 -22z
m-55 -17 c-3 -5 -12 -10 -18 -10 -7 0 -6 4 3 10 19 12 23 12 15 0z m54 -17 c2
-2 -8 -3 -22 -3 -20 0 -25 4 -21 15 5 13 9 13 23 3 9 -7 18 -14 20 -15z m14
-46 c3 -8 -3 -13 -14 -13 -22 0 -25 12 -6 19 6 3 13 6 13 6 1 1 4 -5 7 -12z
m1867 -343 c0 -14 -4 -23 -9 -20 -5 3 -7 15 -4 26 7 28 13 25 13 -6z m46 3 c8
3 14 -1 14 -10 0 -12 -19 -27 -36 -27 -2 0 -3 15 -3 33 1 17 3 24 6 15 2 -10
10 -15 19 -11z m932 -2271 c-1 -13 -10 -29 -20 -35 -16 -10 -18 -8 -18 15 0
19 4 25 15 20 9 -3 15 0 15 9 0 8 2 15 5 15 3 0 4 -11 3 -24z m47 -6 c3 -5 -1
-10 -9 -10 -9 0 -16 5 -16 10 0 6 4 10 9 10 6 0 13 -4 16 -10z m-31 -55 c-4
-8 -8 -15 -10 -15 -2 0 -4 7 -4 15 0 8 4 15 10 15 5 0 7 -7 4 -15z m-54 1 c0
-3 -4 -8 -10 -11 -5 -3 -10 -1 -10 4 0 6 5 11 10 11 6 0 10 -2 10 -4z m85 -26
c3 -5 1 -10 -4 -10 -6 0 -11 5 -11 10 0 6 2 10 4 10 3 0 8 -4 11 -10z m-58
-18 c-10 -10 -15 -21 -12 -24 3 -2 -2 -5 -10 -5 -12 0 -10 6 7 24 25 27 39 32
15 5z m-1017 -26 c0 -3 -4 -8 -10 -11 -5 -3 -10 -1 -10 4 0 6 5 11 10 11 6 0
10 -2 10 -4z m84 -27 c11 -11 15 -19 9 -19 -6 0 -16 7 -23 15 -7 8 -18 15 -26
15 -7 0 -16 5 -20 11 -10 17 36 0 60 -22z m-64 2 c0 -6 -4 -12 -8 -15 -5 -3
-9 1 -9 9 0 8 4 15 9 15 4 0 8 -4 8 -9z m-30 -11 c0 -5 -2 -10 -4 -10 -3 0 -8
5 -11 10 -3 6 -1 10 4 10 6 0 11 -4 11 -10z m72 -13 c7 -8 19 -12 26 -9 6 2
12 -1 12 -7 0 -17 -25 -13 -50 9 -13 11 -18 20 -12 20 6 0 17 -6 24 -13z m124
-20 c11 -11 -29 -8 -46 3 -12 8 -9 10 12 7 15 -1 30 -6 34 -10z m44 -19 c0 -6
-6 -5 -15 2 -8 7 -15 14 -15 16 0 2 7 1 15 -2 8 -4 15 -11 15 -16z m-97 -1
c-3 -5 3 -6 16 -2 13 4 21 2 21 -5 0 -6 4 -9 9 -6 5 3 14 -1 21 -10 10 -12 15
-12 21 -2 4 7 11 9 15 5 4 -4 3 -12 -3 -18 -8 -8 -20 -7 -44 4 -19 9 -44 18
-56 22 -26 7 -31 22 -8 22 8 0 12 -5 8 -10z m147 -48 c0 -5 -9 -9 -20 -9 -19
0 -26 11 -14 23 8 8 34 -3 34 -14z m22 -1 c-7 -7 -12 -8 -12 -2 0 14 12 26 19
19 2 -3 -1 -11 -7 -17z m61 2 c3 6 4 5 3 -2 -4 -17 -38 -17 -44 0 -3 11 0 12
16 3 14 -7 22 -7 25 -1z m-128 -28 c-3 -3 -11 0 -18 7 -9 10 -8 11 6 5 10 -3
15 -9 12 -12z m35 -8 c0 -8 -4 -12 -10 -9 -5 3 -10 10 -10 16 0 5 5 9 10 9 6
0 10 -7 10 -16z m85 -4 c-3 -5 -1 -10 4 -10 6 0 11 4 11 8 0 4 16 9 35 10 19
2 35 -1 35 -6 0 -5 -11 -8 -25 -7 -14 2 -25 0 -25 -4 0 -4 -13 -7 -30 -7 -16
0 -30 4 -30 10 0 6 -4 4 -10 -4 -5 -8 -12 -11 -17 -7 -4 5 -1 12 7 17 20 13
53 13 45 0z m135 -30 c0 -17 -55 -31 -57 -15 -1 6 10 9 25 8 24 -2 24 -2 7 6
-19 9 -19 10 3 10 12 1 22 -4 22 -9z m-109 -7 c-11 -5 -11 -7 0 -14 10 -6 5
-9 -16 -9 -29 1 -29 1 -11 15 11 8 25 15 30 14 6 0 5 -3 -3 -6z m26 -15 c-3
-8 -6 -5 -6 6 -1 11 2 17 5 13 3 -3 4 -12 1 -19z m131 -9 c-2 -6 -8 -10 -13
-10 -5 0 -11 4 -13 10 -2 6 4 11 13 11 9 0 15 -5 13 -11z m-2821 -26 c297 -6
303 -6 309 -27 14 -48 110 -202 163 -262 49 -56 145 -137 173 -146 6 -2 -3
-31 -20 -64 -17 -33 -33 -78 -37 -100 -3 -21 -8 -49 -11 -61 -3 -16 5 -27 32
-43 34 -22 37 -22 118 -7 98 18 244 84 389 175 53 33 97 55 98 49 0 -7 4 -76
8 -154 8 -139 8 -144 -17 -210 -29 -76 -33 -157 -13 -318 8 -66 8 -163 -1
-362 -6 -150 -14 -273 -18 -273 -3 0 -28 24 -56 53 -134 139 -340 514 -393
716 -36 135 -51 169 -90 208 -39 40 -98 53 -177 41 -33 -6 -69 -10 -81 -10
-35 0 -81 24 -92 49 -6 12 -27 40 -47 62 -28 32 -41 40 -59 35 -18 -5 -34 7
-86 67 -35 40 -87 98 -115 128 -27 31 -98 110 -156 176 -58 66 -115 129 -127
139 -11 11 -21 24 -21 30 0 13 -27 69 -53 107 l-17 26 47 -9 c27 -5 184 -11
350 -15z m2793 8 c0 -5 -9 -11 -20 -14 -23 -6 -25 -2 -7 17 12 14 27 12 27 -3z
m-145 -1 c3 -5 1 -10 -4 -10 -6 0 -11 5 -11 10 0 6 2 10 4 10 3 0 8 -4 11 -10z
m93 -2 c-2 -5 -8 -9 -13 -9 -5 0 -11 4 -13 9 -1 5 4 9 13 9 9 0 14 -4 13 -9z
m-38 -8 c0 -5 -10 -10 -22 -10 -19 0 -20 2 -8 10 19 13 30 13 30 0z m150 -10
c-13 -8 -12 -10 4 -10 25 0 18 -5 -16 -14 -21 -5 -28 -3 -28 8 0 8 8 17 18 19
30 8 37 7 22 -3z m-2390 -21 c0 -4 -7 -6 -15 -3 -8 4 -15 10 -15 15 0 4 7 6
15 3 8 -4 15 -10 15 -15z m77 6 c0 -8 -4 -15 -9 -15 -5 0 -6 -6 -2 -12 4 -8 3
-10 -2 -5 -5 5 -9 12 -9 15 0 4 -4 13 -8 20 -6 8 -2 12 11 12 10 0 19 -7 19
-15z m63 11 c0 -2 3 -11 6 -20 4 -11 1 -16 -11 -16 -11 0 -15 5 -12 14 4 9 -1
17 -11 19 -12 3 -11 5 6 6 12 0 22 -1 22 -3z m59 -29 c0 -7 -4 -21 -9 -32 -8
-18 -9 -17 -9 7 -1 15 -5 30 -11 33 -20 12 -10 26 10 15 11 -6 20 -16 19 -23z
m2130 2 c-19 -12 -69 -11 -69 1 0 5 14 7 33 4 22 -4 28 -3 18 4 -11 8 -10 11
5 14 23 5 32 -11 13 -23z m176 19 c3 -3 -1 -8 -9 -11 -8 -3 -17 0 -19 8 -5 13
16 15 28 3z m175 -3 c0 -8 -4 -15 -10 -15 -5 0 -7 7 -4 15 4 8 8 15 10 15 2 0
4 -7 4 -15z m-119 -15 c-26 -23 -45 -26 -39 -8 3 7 15 15 29 19 36 10 36 10
10 -11z m-2598 -10 c3 -13 0 -20 -9 -20 -8 0 -14 9 -14 20 0 11 4 20 9 20 5 0
11 -9 14 -20z m67 16 c0 -3 -4 -8 -10 -11 -5 -3 -10 -1 -10 4 0 6 5 11 10 11
6 0 10 -2 10 -4z m2220 0 c0 -11 -19 -15 -25 -6 -3 5 1 10 9 10 9 0 16 -2 16
-4z m190 -16 c0 -5 -2 -10 -4 -10 -2 0 -12 -3 -22 -7 -16 -6 -17 -5 -4 10 17
19 30 22 30 7z m60 -25 c-7 -8 -16 -13 -20 -10 -5 3 -11 -1 -13 -7 -3 -8 -6
-5 -6 6 -1 12 4 16 13 13 9 -4 17 3 21 16 4 14 8 17 12 9 3 -7 -1 -19 -7 -27z
m110 26 c0 -6 -4 -13 -10 -16 -5 -3 -10 1 -10 9 0 9 5 16 10 16 6 0 10 -4 10
-9z m-220 -10 c0 -13 -28 -22 -35 -11 -3 4 1 11 7 13 20 8 28 8 28 -2z m187
-6 c0 -8 -4 -12 -8 -10 -4 3 -10 -2 -13 -11 -3 -8 -10 -12 -16 -9 -16 10 -12
19 13 31 12 7 22 12 23 13 0 0 1 -6 1 -14z m78 -5 c-21 -24 -35 -26 -35 -6 0
8 10 17 23 19 12 2 24 5 26 6 2 0 -4 -8 -14 -19z m-2650 -11 c5 -15 10 -17 20
-9 9 8 14 6 19 -6 8 -22 2 -27 -22 -20 -20 7 -49 56 -32 56 5 0 12 -9 15 -21z
m95 0 c0 -6 -4 -7 -10 -4 -5 3 -10 11 -10 16 0 6 5 7 10 4 6 -3 10 -11 10 -16z
m35 11 c3 -5 1 -10 -4 -10 -6 0 -11 5 -11 10 0 6 2 10 4 10 3 0 8 -4 11 -10z
m129 -5 c3 -8 13 -15 21 -15 9 0 13 -4 10 -10 -10 -15 -35 -12 -35 5 0 8 -4
15 -10 15 -5 0 -10 5 -10 10 0 15 17 12 24 -5z m-44 -5 c0 -5 -2 -10 -4 -10
-3 0 -8 5 -11 10 -3 6 -1 10 4 10 6 0 11 -4 11 -10z m2070 0 c0 -5 -4 -10 -9
-10 -6 0 -13 5 -16 10 -3 6 1 10 9 10 9 0 16 -4 16 -10z m55 0 c3 -5 -3 -10
-14 -10 -12 0 -21 -5 -21 -11 0 -6 9 -8 21 -4 15 5 19 4 15 -4 -10 -16 -36
-13 -43 5 -9 24 29 45 42 24z m92 -16 c-3 -3 -11 -7 -19 -8 -7 -2 -21 -6 -31
-11 -10 -4 -21 -5 -24 -1 -10 9 1 16 31 18 16 2 31 9 34 17 4 11 7 12 10 2 2
-7 2 -15 -1 -17z m253 17 c0 -5 -13 -19 -30 -31 -16 -12 -30 -16 -30 -10 0 6
10 15 23 20 12 5 18 9 14 9 -11 1 2 21 14 21 5 0 9 -4 9 -9z m-2520 -37 c0
-21 -27 -17 -33 5 -3 14 0 17 14 14 11 -3 19 -12 19 -19z m2360 4 c0 -6 -10
-8 -24 -4 -15 4 -26 1 -29 -7 -2 -6 -8 -8 -13 -4 -11 10 17 28 34 22 6 -2 12
0 12 6 0 6 5 7 10 4 6 -3 10 -11 10 -17z m42 -20 c-17 -11 -28 -14 -31 -7 -4
13 19 30 31 23 4 -3 8 3 8 13 0 15 2 16 10 3 6 -10 2 -19 -18 -32z m-2456 16
c18 -14 18 -15 -6 -8 -31 8 -50 24 -29 24 8 0 24 -7 35 -16z m124 6 c0 -5 -11
-10 -25 -10 -14 0 -25 5 -25 10 0 6 11 10 25 10 14 0 25 -4 25 -10z m-206 -45
c9 -14 13 -25 10 -25 -11 0 -44 32 -44 42 0 16 18 8 34 -17z m2346 5 c-8 -5
-18 -6 -24 -3 -5 4 -1 10 10 13 24 9 34 2 14 -10z m70 9 c0 -5 -11 -8 -25 -7
-14 1 -25 5 -25 9 0 4 11 7 25 7 14 0 25 -4 25 -9z m80 1 c0 -5 -10 -10 -22
-10 -19 0 -20 2 -8 10 19 13 30 13 30 0z m87 -10 c-2 -11 -7 -23 -12 -27 -4
-5 -4 -2 0 6 6 10 4 13 -7 9 -8 -4 -15 0 -15 8 0 7 4 11 9 8 4 -3 8 0 8 5 0 6
4 11 10 11 5 0 9 -9 7 -20z m-2541 1 c-3 -5 1 -12 10 -15 9 -4 14 -9 11 -13
-8 -7 -37 15 -37 28 0 5 5 9 11 9 5 0 8 -4 5 -9z m63 -13 c5 -13 7 -25 5 -27
-5 -6 -44 30 -44 41 0 18 31 7 39 -14z m59 -8 c-1 -24 4 -31 18 -26 8 3 12 2
9 -4 -3 -6 1 -10 9 -10 9 0 16 -4 16 -10 0 -19 -23 -10 -47 18 -38 44 -42 50
-36 55 5 6 31 -14 31 -23z m59 15 c0 -10 -8 -15 -20 -13 -30 4 -34 28 -4 28
15 0 24 -6 24 -15z m2215 -17 c-7 -7 -12 -8 -12 -2 0 14 12 26 19 19 2 -3 -1
-11 -7 -17z m88 2 c-8 -5 -17 -7 -19 -4 -3 3 1 9 9 14 8 5 17 7 19 4 3 -3 -1
-9 -9 -14z m-115 0 c-3 -5 -11 -10 -16 -10 -6 0 -7 5 -4 10 3 6 11 10 16 10 6
0 7 -4 4 -10z m-2145 -26 c0 -8 -4 -14 -10 -14 -5 0 -10 4 -10 10 0 5 -6 7
-14 4 -8 -3 -17 -1 -20 4 -3 5 8 9 24 10 20 0 30 -4 30 -14z m2230 5 c0 -5 -9
-9 -19 -9 -11 0 -22 4 -25 9 -3 5 6 9 19 9 14 0 25 -4 25 -9z m-2437 -38 c21
-26 22 -32 3 -25 -8 3 -16 14 -19 25 -3 11 -11 18 -17 17 -7 -2 -15 3 -17 10
-7 19 26 1 50 -27z m7 29 c0 -5 -2 -10 -4 -10 -3 0 -8 5 -11 10 -3 6 -1 10 4
10 6 0 11 -4 11 -10z m99 -39 c-7 -2 -17 3 -23 11 -6 8 -17 13 -23 11 -7 -3
-13 0 -13 7 0 6 5 8 10 5 6 -3 10 -1 10 6 0 7 12 2 26 -12 16 -15 21 -25 13
-28z m-73 21 c-3 -3 2 -11 12 -18 11 -9 13 -13 4 -14 -7 0 -19 6 -26 13 -14
14 -10 40 6 31 5 -3 7 -8 4 -12z m640 -13 c6 -10 -11 -28 -28 -29 -5 0 -4 19
1 38 2 7 21 1 27 -9z m-486 -9 c0 -5 -7 -10 -16 -10 -8 0 -12 5 -9 10 3 6 10
10 16 10 5 0 9 -4 9 -10z m-47 -23 c7 -7 13 -18 15 -25 3 -16 -28 -1 -48 22
-10 13 -10 16 4 16 10 0 23 -6 29 -13z m-48 -11 c8 -7 12 -16 9 -18 -2 -3 2
-11 11 -18 12 -10 15 -10 15 1 0 11 2 11 10 -1 13 -21 12 -27 -5 -34 -8 -3
-14 0 -12 6 1 6 -4 13 -12 16 -8 3 -11 0 -7 -7 5 -7 1 -9 -8 -5 -9 3 -16 10
-16 16 0 5 5 6 10 3 16 -10 12 12 -5 29 -15 15 -19 26 -9 26 3 0 12 -6 19 -14z
m-39 -18 l19 -21 -27 18 c-29 18 -34 25 -20 25 5 0 17 -10 28 -22z m534 -13
c0 -2 -10 -10 -22 -16 -21 -11 -22 -11 -9 4 13 16 31 23 31 12z m70 -25 c-8
-5 -15 -17 -15 -27 0 -10 -7 -18 -16 -17 -9 1 -16 -5 -16 -12 0 -17 2 -17 30
-3 21 11 21 10 6 -6 -11 -11 -24 -15 -37 -11 -18 6 -19 11 -10 37 6 16 12 28
15 25 3 -2 14 5 25 16 11 11 23 17 26 13 4 -3 0 -10 -8 -15z m-74 -9 c-7 -11
-56 -21 -56 -10 0 4 8 10 18 12 30 8 43 7 38 -2z m-21 -38 c-2 -10 -4 -24 -4
-30 -1 -7 -11 -13 -23 -13 -19 0 -20 2 -8 10 9 6 10 10 3 10 -22 0 -24 -19 -3
-30 16 -9 18 -15 10 -30 -12 -22 -45 -27 -56 -8 -4 6 0 16 9 23 8 6 15 18 15
26 -2 34 3 48 20 52 33 9 40 7 37 -10z m-100 -42 c-6 -4 -23 -11 -40 -15 l-30
-6 25 15 c27 16 60 21 45 6z m173 -18 c-5 -6 -15 -10 -23 -7 -7 3 -16 1 -20
-5 -10 -18 -24 -12 -18 7 3 14 13 19 38 18 25 -1 31 -4 23 -13z m-193 -24 c-6
-31 -11 -33 -36 -15 l-23 15 25 10 c35 14 38 13 34 -10z m-251 -8 c3 -5 -3
-11 -13 -14 -14 -3 -18 -1 -14 9 6 16 19 18 27 5z m59 -8 c-7 -2 -19 -2 -25 0
-7 3 -2 5 12 5 14 0 19 -2 13 -5z m97 3 c0 -9 -30 -14 -35 -6 -4 6 3 10 14 10
12 0 21 -2 21 -4z m-101 -37 c-9 -17 -13 -19 -20 -8 -14 22 -11 29 11 29 18 0
19 -3 9 -21z m78 7 c1 -1 0 -12 -4 -24 -3 -12 -16 -25 -30 -28 -33 -9 -42 3
-10 15 14 5 28 15 32 20 8 14 -1 14 -25 1 -15 -8 -17 -6 -13 10 4 16 11 19 27
14 11 -4 22 -7 23 -8z m72 5 c11 -7 10 -11 -7 -20 -26 -14 -54 -15 -32 -1 8 5
11 10 7 10 -5 0 -5 5 -2 10 8 12 16 12 34 1z m103 -9 c-13 -2 -26 -10 -29 -18
-5 -14 -23 -10 -23 6 0 11 53 29 65 21 6 -3 0 -7 -13 -9z m-289 -8 c-1 -5 3
-15 9 -21 8 -10 4 -13 -15 -13 -20 0 -24 4 -20 20 3 11 0 20 -6 20 -6 0 -11
-8 -11 -17 0 -14 -3 -14 -12 -5 -10 10 -10 15 2 22 18 11 56 7 53 -6z m203
-23 c-9 -10 -28 -18 -42 -17 -31 1 -30 4 9 21 44 19 53 18 33 -4z m-198 -33
c-6 -18 -25 -20 -31 -3 -5 10 0 15 14 15 12 0 19 -5 17 -12z m152 -18 c-6 -11
-16 -20 -23 -20 -8 0 -7 4 3 11 12 8 10 9 -7 4 -13 -3 -23 -2 -23 3 0 15 12
22 37 22 21 0 22 -3 13 -20z m-185 -21 c3 -19 -22 -42 -30 -29 -4 6 -11 7 -17
4 -7 -4 -8 -2 -4 4 4 7 15 12 24 13 11 0 12 2 4 6 -15 6 -5 26 11 20 5 -1 11
-10 12 -18z m-72 -14 c-3 -9 -8 -14 -10 -11 -3 3 -2 9 2 15 9 16 15 13 8 -4z
m129 -6 c-13 -5 -21 -13 -18 -18 3 -5 -2 -15 -11 -22 -15 -12 -16 -12 -10 4 4
10 7 25 7 33 0 9 10 14 28 13 26 0 27 0 4 -10z m-87 -29 c8 -13 -5 -13 -25 0
-13 8 -13 10 2 10 9 0 20 -4 23 -10z"/>
<path d="M5088 5363 c7 -3 16 -2 19 1 4 3 -2 6 -13 5 -11 0 -14 -3 -6 -6z"/>
<path d="M5065 5290 c-3 -5 -2 -10 4 -10 5 0 13 5 16 10 3 6 2 10 -4 10 -5 0
-13 -4 -16 -10z"/>
<path d="M4536 10671 c-3 -4 1 -17 8 -27 13 -17 14 -17 9 9 -6 29 -9 32 -17
18z"/>
<path d="M4565 10620 c-3 -5 -5 -10 -3 -11 33 -8 38 -7 27 7 -14 17 -16 17
-24 4z"/>
</g>
</svg>
